# xmcd
#
# Track frame offsets: 
#        150
#        1095
#        23292
#        42075
#        86337
#        119532
#        120707
#        141862
#        142965
#        165690
#        196640
#        219455
#        242147
#        286295
#
# Disc length: 4774 seconds
#
# Revision: 4
# Processed by: cddbd v1.5.2PL0 Copyright (c) Steve Scherf et al.
# Submitted via: ExactAudioCopy v0.99pb4
#
DISCID=b112a40e
DTITLE=Papa Mali And The Instagators - Thunder Chicken
DYEAR=1999
DGENRE=Blues
TTITLE0=All Right You Got It
TTITLE1=Bon Ton Roulet
TTITLE2=Man of Many Words
TTITLE3=Walk on Guilded Splinters
TTITLE4=I'm the One
TTITLE5=La Bebida Por Su Vida
TTITLE6=Keep Happy
TTITLE7=Fleabite Junior the Third
TTITLE8=If I Ever Get Right
TTITLE9=Fire Water
TTITLE10=Cottonfields and Bayous
TTITLE11=Skeleton Bug
TTITLE12=South Austin Lullaby
TTITLE13=Data track
EXTD=
EXTT0=
EXTT1=
EXTT2=
EXTT3=
EXTT4=
EXTT5=
EXTT6=
EXTT7=
EXTT8=
EXTT9=
EXTT10=
EXTT11=
EXTT12=
EXTT13=
PLAYORDER=
